<svg xmlns="http://www.w3.org/2000/svg" xmlns:xlink="http://www.w3.org/1999/xlink" width="1033" height="750" viewBox="0 0 1033 750">
  <defs>
    <clipPath id="clip-Bihar_Map_Updated">
      <rect width="1033" height="750"/>
    </clipPath>
  </defs>
  <g id="Bihar_Map_Updated" data-name="Bihar Map Updated" clip-path="url(#clip-Bihar_Map_Updated)">
    <path id="BIHAR" d="M1300,465.606l11.2.844h0ZM483.29,238.057l6.9-.729-.407,7.257L501.6,248.4l.565,6.347,9.475-2.239,8.234,15.883,67.72,10.775,14.752,28.9L598.9,335.971l-6.558,11.265,23.691,10.425,3.293-3.478,4.345,5.138,7.51-5.547,12.828,11.615,14.7,2.179,3.333,4.728-2.232,5.607,19.236,6.837-7.9,7.3,31.7.883.428,9.262,6.885,12.4,25.765,4.028,15.219-11.594,9.564,2.149,37.59-20.99,20.785,17.792-.437,32.925,17.689,12.054,6.955-1.629-.248,9.566,20.407-10.425,2.54-8.806,14.157-3.578L903,444.861l-.486,5.228,11.648-1.909,5.208,6.127,7.252-6.677,15.516-.579,44.644,18.891,5.933,9.585,33.374,17.4,7.1-8.466,14.137,4.588,12.6-5.347-.486-5.6,7.927-.82.6-6.327,17.153-3.558,6.141-12.834,5.6.35,4.078,31.505,14.772,10.735,19.455-1.639,2,8.656,9.673.579,5.923,5.478,5.794-13.994,20.3-7.507,28.949,13.814,9.534-2.929,5.377-9.735,11.617,6.417,6.8-1.069,4.841-13.2,12.243,7.607,8.195-11.674,8.036,15.913,13.463,5.977,1.29,6.387,6.687.02.962-6.3,12.51-10.625,1.816-22.819h0l8.155,5.727,4.752-6.137,13.076-3.4.447,4.568-11.29,9.715,3.066,4.318,6.746-.989.575,6.767,8.076,5.9L1337,499.437l1.488,4.318,6.221-1.349,5.05,6.327-16.122,16.772-14.495,6.7-15.506,17.882-6.726-.459-5.06,8.536-10.179-2.579.843,16.372-6.28-.719-1.409,3.588-3.78-5.108-14.7,10.775-2.53,25.238-5.437,5.4,3.958,9.406,18.284,4.558-5.714,5.357,5.635,3.189-2.5,10.415,7.044-.36,5.943,10.785,18.2,7.876-2.7,12.414,3.889.92L1293.5,686.28l3.056,11.585,7.7,7.566-.506,5.4-8.889-1.3-4.167-5.587-.674,3.768-3.651-1.979-.129-5.118-12.461-2.629-5.615,7.357-4.107-2.7-3.274,11.665-6.151.189-5.219,7.007-5.675-2.409-4.623,9.125,1.379,6.237,4.8,1.319-1.012,9.166,15.06,12.584-6.994,10,2.877,8.066-10.189-4.888h0l-.893-5.907-15.685-2.349-4.911-12.364-16.032-.29-5.576-8.516-6.786,4.018-1.6,11.354-12.094-3.118,2.946,7.526-4.782,4.968-.109,10.625-16.687-7.556-4.554,5.168-9.643-4.148-6.727,30.766-8.423-3.808-8.135,3.738L1111.94,815.8l2.351,31.825-1.478,6.237-7.59.66-7.46,7.637,3.76,4.768-9.594,44.6-25-8.256-6.647,12.884,2.708,10.955-7.222-6.547-4.524,3.858-3.651-4.068-7.629.839,1.14-6.847-5.963-5.787-5.456.41-4,9.656-13.125,3.478-13.592-10.175-11.677,16.032-8.512,3.958-3.552,21.2-4.732.709-2.828,12.164-7.609-2.409L946.6,948.835l-14.872-4.188,6.915-10.625-1.746-11.385,3.909-5.907-12.193,1.879-9.713-8.216-4.653,6.087-12.808-4.208L899.591,889l-7.867-9.416-9.862,1.139,2.391-8.766-20.824,10.875-15.07-15.623-20.874.309-8.413-5.437-8.333,25.028-9.782,6.037,3.145,24.069-18.3-4.828-1.716,8.656-6.538-.01-3.849,9.315-6.607-6-42.362,5.5-.119,6.737-27.263,7.856,3.889,7.636-16.608,11.485-4.98-1.729v-9.756l-6.536,3.929h-9.049l-4.544,8.286-14.643.88-3.71-20.73-9.5,2.349-.367-13.484-7.748-4.108-24.178,16.722-4.3,14.314-17.818-4.258-1.4,6.487-9.177,1.759.823,8.406L560.86,984.6l-8.105-11.785-7.7,1.659,1.052-6.347-8.373-6.977-9.623-1.4-4.326-6.317,3.185-1.769-7.728-4.488.208-6.847,6.687-5.028L519.2,920.838l-4.931.4,2.262,2.819-4.762,4.838-4.6-5.128-3.631,4.118-6.062-4.618-3.2,1.879,1.329,8.4-6.9-6.837-1.25,8.116-6.28,5.357-13.086-29.936-11.329-5.9-13.235,20.62-12.56,3.438-31.43,6.387-45.378-5.048h0l8.969-22.689-9.107-5.837,3.363-6.757-6.845-5.627-.189-7.336-5.556,1.039-13.78-11.665.744-11.2-7.56-8.606-2.1-32.1-5.337-1.569,8.135-24.559-4.574-13.144,2.966-4.038,8.026-1.859,4.365-9.725,10.6-.62,16.439-15.113,5.129,2.189,12.093-4.917,5.784-8.856,8.056-.77-2.857-1.639,4.018-4.078,1.954,2.289,5.913-5.627,6.111,5.227,7.778-5.317-1.032-4.758,9.137-1.219-5.843-6.687,8.492-1.8,13.691-19.551,33.116-18.242-1.429-13.4,5.149-5.727L489.142,653l9.573,6.367,1.786,7.8,17.173,1.879-.417-3.608,7.262,1.2,2.649-16.772,10.109-.949,4.544,11.365,9.742-3.468,8.225,8.456,7.52-1.5,2.341-9.735-.932,7.776,4.345,2.029.684-12.094,15.566,1.869-6.24-7.466,4.088-7.726-13.235-10.035-6.132.74.347-10.035-21.875-3.4-3.115-9.006-11.816-6.477-11.429,2.859-19.634-12.4-7.391,2.1.209-7.867-15.824-16.462-8.72-.73-6.419-10.535-1.379-22.159,14.088,4.518,6.985-9.446,9.623,3.718,4.653-16.512-2.153-13.224-20.626-2.439-12.679-14.873-6.022,3.218-16.538-3.638-.02-15.773,12.53,2.209L453,467.34l15.288-2.689,7.223-13.064-.159-10.065L514.9,451.647l29.534-6.467-2.53-10.255L526,431.886l-5.734-16.072L509.737,421.4l-2.778-2.389-1.945-4.1,5.744-12.034-2.321-12.534-6.617-2-8.373,8.506-7.738-4.938,1.9-7.447-8.354-3.089-2.2,5.527-7.9-3.4-.9-9.366-4.732-2.539,4.514-4.488-1.211-19.331-10.4-5.587,6.221-6.277-16.885.579,8.175-25.128-5.05-8.106-11.736-5.707,5.754-10.475-1.865-4.958-12.887,3.309-5.337-2.709,5.337-5.647v-2.509l11.171-6.258-6.885-1.789V255.713l12.044-2.664,19.834,2.664,14.294-12.06.476-6.417,4.2.819Z" transform="translate(-317 -237)" fill="none" stroke="#000" stroke-width="0.3"/>
    <g id="HOTSPOT" transform="translate(-613)">
      <g id="Group_41" data-name="Group 41" transform="translate(-22 -32)">
        <circle id="Ellipse_38" data-name="Ellipse 38" cx="25" cy="25" r="25" transform="translate(816 94)" fill="#d03000"/>
        <text id="_1" data-name="1" transform="translate(838 126)" fill="#fff" font-size="20" font-family="Prata-Regular, Prata"><tspan x="0" y="0">1</tspan></text>
      </g>
      <g id="Group_42" data-name="Group 42" transform="translate(330 469)">
        <circle id="Ellipse_38-2" data-name="Ellipse 38" cx="25" cy="25" r="25" transform="translate(816 94)" fill="#d03000"/>
        <text id="_2" data-name="2" transform="translate(835 126)" fill="#fff" font-size="20" font-family="Prata-Regular, Prata"><tspan x="0" y="0">2</tspan></text>
      </g>
      <g id="Group_43" data-name="Group 43" transform="translate(105 524)">
        <circle id="Ellipse_38-3" data-name="Ellipse 38" cx="25" cy="25" r="25" transform="translate(816 94)" fill="#d03000"/>
        <text id="_3" data-name="3" transform="translate(835 126)" fill="#fff" font-size="20" font-family="Prata-Regular, Prata"><tspan x="0" y="0">3</tspan></text>
      </g>
      <g id="Group_44" data-name="Group 44" transform="translate(-116 465)">
        <circle id="Ellipse_38-4" data-name="Ellipse 38" cx="25" cy="25" r="25" transform="translate(816 94)" fill="#d03000"/>
        <text id="_4" data-name="4" transform="translate(835 126)" fill="#fff" font-size="20" font-family="Prata-Regular, Prata"><tspan x="0" y="0">4</tspan></text>
      </g>
    </g>
  </g>
</svg>
